<svg width="118" height="24" fill="none" xmlns="http://www.w3.org/2000/svg"><path d="M17.051.734v21.98h-4.948v-8.678H4.949v8.678H0V.734h4.949v8.804h7.154V.734h4.948zm17.894 7.113v14.87h-4.633v-1.693C29.241 22.428 27.255 23 25.743 23c-3.656 0-7.122-2.934-7.122-7.751s3.466-7.752 7.122-7.752c1.512 0 3.498.574 4.57 1.979V7.847h4.632zm-4.819 7.4c0-1.915-1.608-3.349-3.373-3.349-1.828 0-3.403 1.466-3.403 3.349 0 1.882 1.575 3.35 3.403 3.35a3.327 3.327 0 002.37-.97 3.409 3.409 0 001.003-2.38zm21.329-.54v8.007H46.79v-7.467c0-2.297-1.388-3.157-2.554-3.157-1.26 0-2.836.67-2.836 3.157v7.465h-4.666V7.842H41.4v2.654c.504-2.107 2.836-3.03 4.222-3.03 3.909 0 5.832 2.678 5.832 7.24zM69.348 0v22.714h-4.632V21.02c-1.071 1.404-3.06 1.976-4.57 1.976-3.656 0-7.124-2.934-7.124-7.751s3.468-7.751 7.125-7.751c1.51 0 3.498.574 4.569 1.978V0h4.632zM64.53 15.247c0-1.915-1.607-3.349-3.372-3.349-1.835.002-3.409 1.466-3.409 3.349 0 1.882 1.577 3.35 3.405 3.35a3.326 3.326 0 002.372-.969 3.408 3.408 0 001.004-2.381zM71.14 0h4.666v22.714h-4.665V0zm21.805 16.653H82.196c.441 1.404 1.674 2.232 3.435 2.232a5.519 5.519 0 003.72-1.436l2.396 3.068c-1.448 1.596-3.97 2.489-6.46 2.489-4.632 0-7.943-3.157-7.943-7.688 0-4.849 3.72-7.847 7.943-7.847 4.192 0 7.753 2.968 7.753 7.497 0 .409-.032.95-.095 1.685zm-4.57-2.775c-.03-1.468-1.323-2.424-2.993-2.424-1.42 0-2.743.638-3.216 2.424h6.21zM110.66 0v22.714h-4.634V21.02c-1.071 1.404-3.058 1.976-4.569 1.976-3.656 0-7.123-2.934-7.123-7.751s3.466-7.751 7.123-7.751c1.511 0 3.498.574 4.569 1.978V0h4.634zm-4.822 15.247c0-1.915-1.609-3.349-3.373-3.349-1.829 0-3.404 1.466-3.404 3.349 0 1.882 1.575 3.35 3.404 3.35a3.326 3.326 0 002.37-.97 3.407 3.407 0 001.003-2.38z" fill="#2B2C2C"/><path d="M112.265 20.161c0-1.594 1.29-2.774 2.836-2.774 1.577 0 2.899 1.18 2.899 2.774 0 1.66-1.322 2.839-2.899 2.839a2.75 2.75 0 01-2.012-.812 2.83 2.83 0 01-.824-2.027z" fill="#F47A5B"/></svg>